<mxfile host="Electron" agent="Mozilla/5.0 (Windows NT 10.0; Win64; x64) AppleWebKit/537.36 (KHTML, like Gecko) draw.io/26.2.15 Chrome/134.0.6998.205 Electron/35.2.1 Safari/537.36" version="26.2.15">
  <diagram name="Página-1" id="iAnNzWaRC2C7qG9hvS6o">
    <mxGraphModel dx="2076" dy="2100" grid="1" gridSize="10" guides="1" tooltips="1" connect="1" arrows="1" fold="1" page="1" pageScale="1" pageWidth="850" pageHeight="1100" math="0" shadow="0">
      <root>
        <mxCell id="0" />
        <mxCell id="1" parent="0" />
        <mxCell id="t81wmtC7-g-EXbkZkcGH-40" value="API MS-Forecast" style="shape=module;align=left;spacingLeft=20;align=center;verticalAlign=top;whiteSpace=wrap;html=1;fillColor=#dae8fc;strokeColor=#6c8ebf;" vertex="1" parent="1">
          <mxGeometry x="510" y="-40" width="202.5" height="390" as="geometry" />
        </mxCell>
        <mxCell id="gQAhKNGNgxRMKhjYHFoc-17" style="edgeStyle=orthogonalEdgeStyle;rounded=0;orthogonalLoop=1;jettySize=auto;html=1;entryX=0;entryY=0.5;entryDx=0;entryDy=0;endArrow=none;startFill=0;" parent="1" source="DMwZq3U9byxDhY9_2GD6-1" target="gQAhKNGNgxRMKhjYHFoc-6" edge="1">
          <mxGeometry relative="1" as="geometry">
            <Array as="points">
              <mxPoint x="140" y="110" />
              <mxPoint x="140" y="525" />
            </Array>
          </mxGeometry>
        </mxCell>
        <mxCell id="gQAhKNGNgxRMKhjYHFoc-20" style="edgeStyle=orthogonalEdgeStyle;rounded=0;orthogonalLoop=1;jettySize=auto;html=1;entryX=0;entryY=0.5;entryDx=0;entryDy=0;endArrow=none;startFill=0;" parent="1" source="DMwZq3U9byxDhY9_2GD6-1" target="DMwZq3U9byxDhY9_2GD6-3" edge="1">
          <mxGeometry relative="1" as="geometry">
            <Array as="points">
              <mxPoint x="140" y="110" />
              <mxPoint x="140" y="240" />
              <mxPoint x="200" y="240" />
            </Array>
          </mxGeometry>
        </mxCell>
        <mxCell id="t81wmtC7-g-EXbkZkcGH-58" style="edgeStyle=orthogonalEdgeStyle;rounded=0;orthogonalLoop=1;jettySize=auto;html=1;" edge="1" parent="1" source="DMwZq3U9byxDhY9_2GD6-1" target="gQAhKNGNgxRMKhjYHFoc-30">
          <mxGeometry relative="1" as="geometry">
            <Array as="points">
              <mxPoint x="65" y="680" />
              <mxPoint x="1113" y="680" />
            </Array>
          </mxGeometry>
        </mxCell>
        <mxCell id="DMwZq3U9byxDhY9_2GD6-1" value="Administrador&lt;div&gt;datacenter&lt;/div&gt;" style="shape=umlActor;verticalLabelPosition=bottom;verticalAlign=top;html=1;outlineConnect=0;" parent="1" vertex="1">
          <mxGeometry x="50" y="60" width="30" height="70" as="geometry" />
        </mxCell>
        <mxCell id="t81wmtC7-g-EXbkZkcGH-4" style="edgeStyle=orthogonalEdgeStyle;rounded=0;orthogonalLoop=1;jettySize=auto;html=1;entryX=0;entryY=0.5;entryDx=0;entryDy=0;endArrow=none;startFill=0;dashed=1;" edge="1" parent="1" source="DMwZq3U9byxDhY9_2GD6-2" target="t81wmtC7-g-EXbkZkcGH-2">
          <mxGeometry relative="1" as="geometry">
            <Array as="points">
              <mxPoint x="360" y="100" />
              <mxPoint x="360" y="100" />
            </Array>
          </mxGeometry>
        </mxCell>
        <mxCell id="DMwZq3U9byxDhY9_2GD6-2" value="Monitorear&lt;div&gt;Clima&lt;/div&gt;" style="ellipse;whiteSpace=wrap;html=1;" parent="1" vertex="1">
          <mxGeometry x="210" y="65" width="120" height="70" as="geometry" />
        </mxCell>
        <mxCell id="gQAhKNGNgxRMKhjYHFoc-24" style="edgeStyle=orthogonalEdgeStyle;rounded=0;orthogonalLoop=1;jettySize=auto;html=1;endArrow=none;startFill=0;dashed=1;" parent="1" source="DMwZq3U9byxDhY9_2GD6-3" target="gQAhKNGNgxRMKhjYHFoc-10" edge="1">
          <mxGeometry relative="1" as="geometry" />
        </mxCell>
        <mxCell id="DMwZq3U9byxDhY9_2GD6-3" value="Modificar&lt;div&gt;Clima&lt;/div&gt;" style="ellipse;whiteSpace=wrap;html=1;" parent="1" vertex="1">
          <mxGeometry x="200" y="200" width="110" height="70" as="geometry" />
        </mxCell>
        <mxCell id="t81wmtC7-g-EXbkZkcGH-28" style="edgeStyle=orthogonalEdgeStyle;rounded=0;orthogonalLoop=1;jettySize=auto;html=1;entryX=0;entryY=1;entryDx=0;entryDy=0;endArrow=none;startFill=0;dashed=1;" edge="1" parent="1" source="gQAhKNGNgxRMKhjYHFoc-3" target="t81wmtC7-g-EXbkZkcGH-21">
          <mxGeometry relative="1" as="geometry" />
        </mxCell>
        <mxCell id="t81wmtC7-g-EXbkZkcGH-29" style="edgeStyle=orthogonalEdgeStyle;rounded=0;orthogonalLoop=1;jettySize=auto;html=1;entryX=0;entryY=0.5;entryDx=0;entryDy=0;endArrow=none;startFill=0;dashed=1;" edge="1" parent="1" source="gQAhKNGNgxRMKhjYHFoc-3" target="t81wmtC7-g-EXbkZkcGH-22">
          <mxGeometry relative="1" as="geometry" />
        </mxCell>
        <mxCell id="gQAhKNGNgxRMKhjYHFoc-3" value="Consultar&amp;nbsp;&lt;div&gt;Histórico&lt;/div&gt;" style="ellipse;whiteSpace=wrap;html=1;" parent="1" vertex="1">
          <mxGeometry x="200" y="380" width="110" height="70" as="geometry" />
        </mxCell>
        <mxCell id="t81wmtC7-g-EXbkZkcGH-32" value="" style="edgeStyle=orthogonalEdgeStyle;rounded=0;orthogonalLoop=1;jettySize=auto;html=1;" edge="1" parent="1" source="gQAhKNGNgxRMKhjYHFoc-4" target="t81wmtC7-g-EXbkZkcGH-31">
          <mxGeometry relative="1" as="geometry" />
        </mxCell>
        <mxCell id="t81wmtC7-g-EXbkZkcGH-34" style="edgeStyle=orthogonalEdgeStyle;rounded=0;orthogonalLoop=1;jettySize=auto;html=1;entryX=0;entryY=0.5;entryDx=0;entryDy=0;" edge="1" parent="1" source="gQAhKNGNgxRMKhjYHFoc-4" target="t81wmtC7-g-EXbkZkcGH-33">
          <mxGeometry relative="1" as="geometry" />
        </mxCell>
        <mxCell id="gQAhKNGNgxRMKhjYHFoc-4" value="Ajustar temperatura&amp;nbsp;" style="ellipse;whiteSpace=wrap;html=1;" parent="1" vertex="1">
          <mxGeometry x="400" y="160" width="95" height="60" as="geometry" />
        </mxCell>
        <mxCell id="t81wmtC7-g-EXbkZkcGH-43" style="edgeStyle=orthogonalEdgeStyle;rounded=0;orthogonalLoop=1;jettySize=auto;html=1;entryX=0;entryY=0.5;entryDx=0;entryDy=0;endArrow=none;startFill=0;dashed=1;" edge="1" parent="1" source="gQAhKNGNgxRMKhjYHFoc-6" target="gQAhKNGNgxRMKhjYHFoc-7">
          <mxGeometry relative="1" as="geometry" />
        </mxCell>
        <mxCell id="t81wmtC7-g-EXbkZkcGH-44" style="edgeStyle=orthogonalEdgeStyle;rounded=0;orthogonalLoop=1;jettySize=auto;html=1;entryX=0;entryY=0.5;entryDx=0;entryDy=0;endArrow=none;startFill=0;dashed=1;" edge="1" parent="1" source="gQAhKNGNgxRMKhjYHFoc-6" target="gQAhKNGNgxRMKhjYHFoc-9">
          <mxGeometry relative="1" as="geometry" />
        </mxCell>
        <mxCell id="gQAhKNGNgxRMKhjYHFoc-6" value="Configurar&lt;div&gt;Alertas&lt;/div&gt;" style="ellipse;whiteSpace=wrap;html=1;" parent="1" vertex="1">
          <mxGeometry x="190" y="490" width="110" height="70" as="geometry" />
        </mxCell>
        <mxCell id="gQAhKNGNgxRMKhjYHFoc-7" value="Umbral de alerta" style="ellipse;whiteSpace=wrap;html=1;" parent="1" vertex="1">
          <mxGeometry x="435" y="490" width="105" height="58" as="geometry" />
        </mxCell>
        <mxCell id="gQAhKNGNgxRMKhjYHFoc-9" value="Destinatario de alerta" style="ellipse;whiteSpace=wrap;html=1;" parent="1" vertex="1">
          <mxGeometry x="435" y="570" width="112.5" height="50" as="geometry" />
        </mxCell>
        <mxCell id="t81wmtC7-g-EXbkZkcGH-38" style="edgeStyle=orthogonalEdgeStyle;rounded=0;orthogonalLoop=1;jettySize=auto;html=1;" edge="1" parent="1" source="gQAhKNGNgxRMKhjYHFoc-10" target="t81wmtC7-g-EXbkZkcGH-37">
          <mxGeometry relative="1" as="geometry" />
        </mxCell>
        <mxCell id="t81wmtC7-g-EXbkZkcGH-39" style="edgeStyle=orthogonalEdgeStyle;rounded=0;orthogonalLoop=1;jettySize=auto;html=1;entryX=0;entryY=0.5;entryDx=0;entryDy=0;" edge="1" parent="1" source="gQAhKNGNgxRMKhjYHFoc-10" target="t81wmtC7-g-EXbkZkcGH-36">
          <mxGeometry relative="1" as="geometry" />
        </mxCell>
        <mxCell id="gQAhKNGNgxRMKhjYHFoc-10" value="Ajustar humedad&amp;nbsp;" style="ellipse;whiteSpace=wrap;html=1;" parent="1" vertex="1">
          <mxGeometry x="400" y="250" width="95" height="60" as="geometry" />
        </mxCell>
        <mxCell id="gQAhKNGNgxRMKhjYHFoc-23" style="edgeStyle=orthogonalEdgeStyle;rounded=0;orthogonalLoop=1;jettySize=auto;html=1;entryX=0.021;entryY=0.687;entryDx=0;entryDy=0;entryPerimeter=0;endArrow=none;startFill=0;dashed=1;" parent="1" source="DMwZq3U9byxDhY9_2GD6-3" target="gQAhKNGNgxRMKhjYHFoc-4" edge="1">
          <mxGeometry relative="1" as="geometry" />
        </mxCell>
        <mxCell id="gQAhKNGNgxRMKhjYHFoc-27" value="include" style="edgeLabel;html=1;align=center;verticalAlign=middle;resizable=0;points=[];" parent="gQAhKNGNgxRMKhjYHFoc-23" vertex="1" connectable="0">
          <mxGeometry x="-0.6132" y="-1" relative="1" as="geometry">
            <mxPoint x="11" y="-6" as="offset" />
          </mxGeometry>
        </mxCell>
        <mxCell id="ZMZ58MRgzWgo6C3UAnV4-2" value="include" style="edgeLabel;html=1;align=center;verticalAlign=middle;resizable=0;points=[];" parent="gQAhKNGNgxRMKhjYHFoc-23" vertex="1" connectable="0">
          <mxGeometry x="-0.6132" y="-1" relative="1" as="geometry">
            <mxPoint x="26" y="174" as="offset" />
          </mxGeometry>
        </mxCell>
        <mxCell id="gQAhKNGNgxRMKhjYHFoc-31" value="" style="edgeStyle=orthogonalEdgeStyle;rounded=0;orthogonalLoop=1;jettySize=auto;html=1;endArrow=none;startFill=0;strokeColor=#FF3333;exitX=1;exitY=1;exitDx=0;exitDy=0;exitPerimeter=0;" parent="1" source="gQAhKNGNgxRMKhjYHFoc-28" target="gQAhKNGNgxRMKhjYHFoc-30" edge="1">
          <mxGeometry relative="1" as="geometry">
            <mxPoint x="1020" y="160" as="sourcePoint" />
            <Array as="points">
              <mxPoint x="1000" y="159" />
              <mxPoint x="1080" y="159" />
            </Array>
          </mxGeometry>
        </mxCell>
        <mxCell id="t81wmtC7-g-EXbkZkcGH-53" style="edgeStyle=orthogonalEdgeStyle;rounded=0;orthogonalLoop=1;jettySize=auto;html=1;entryX=1;entryY=0.5;entryDx=0;entryDy=0;fillColor=#b0e3e6;strokeColor=#0e8088;endArrow=none;startFill=0;dashed=1;" edge="1" parent="1" source="t81wmtC7-g-EXbkZkcGH-62" target="t81wmtC7-g-EXbkZkcGH-21">
          <mxGeometry relative="1" as="geometry">
            <Array as="points" />
          </mxGeometry>
        </mxCell>
        <mxCell id="gQAhKNGNgxRMKhjYHFoc-28" value="Sistema" style="shape=umlActor;verticalLabelPosition=bottom;verticalAlign=top;html=1;outlineConnect=0;fillColor=#b0e3e6;strokeColor=#0e8088;" parent="1" vertex="1">
          <mxGeometry x="970" y="95" width="30" height="60" as="geometry" />
        </mxCell>
        <mxCell id="t81wmtC7-g-EXbkZkcGH-45" style="edgeStyle=orthogonalEdgeStyle;rounded=0;orthogonalLoop=1;jettySize=auto;html=1;entryX=1;entryY=0.5;entryDx=0;entryDy=0;fillColor=#f8cecc;strokeColor=#b85450;" edge="1" parent="1" source="gQAhKNGNgxRMKhjYHFoc-30" target="gQAhKNGNgxRMKhjYHFoc-9">
          <mxGeometry relative="1" as="geometry">
            <Array as="points">
              <mxPoint x="1080" y="595" />
            </Array>
          </mxGeometry>
        </mxCell>
        <mxCell id="gQAhKNGNgxRMKhjYHFoc-30" value="&lt;div&gt;&lt;br&gt;&lt;/div&gt;&lt;div&gt;Alerta&lt;/div&gt;" style="ellipse;whiteSpace=wrap;html=1;verticalAlign=top;fillColor=#f8cecc;strokeColor=#b85450;" parent="1" vertex="1">
          <mxGeometry x="1050" y="270" width="125" height="52.5" as="geometry" />
        </mxCell>
        <mxCell id="gQAhKNGNgxRMKhjYHFoc-32" value="&lt;i&gt;se activa&amp;nbsp;&lt;/i&gt;&lt;div&gt;&lt;i&gt;automaticamente&amp;nbsp;&lt;/i&gt;&lt;div&gt;&lt;i&gt;al superar umbral&lt;/i&gt;&lt;/div&gt;&lt;/div&gt;" style="text;html=1;align=center;verticalAlign=middle;resizable=0;points=[];autosize=1;strokeColor=none;fillColor=none;" parent="1" vertex="1">
          <mxGeometry x="1080" y="135" width="120" height="60" as="geometry" />
        </mxCell>
        <mxCell id="t81wmtC7-g-EXbkZkcGH-6" value="" style="edgeStyle=orthogonalEdgeStyle;rounded=0;orthogonalLoop=1;jettySize=auto;html=1;" edge="1" parent="1" source="t81wmtC7-g-EXbkZkcGH-1" target="t81wmtC7-g-EXbkZkcGH-5">
          <mxGeometry relative="1" as="geometry" />
        </mxCell>
        <mxCell id="t81wmtC7-g-EXbkZkcGH-1" value="Monitorear&lt;div&gt;temperatura&lt;/div&gt;" style="ellipse;whiteSpace=wrap;html=1;" vertex="1" parent="1">
          <mxGeometry x="400" width="110" height="60" as="geometry" />
        </mxCell>
        <mxCell id="t81wmtC7-g-EXbkZkcGH-9" value="" style="edgeStyle=orthogonalEdgeStyle;rounded=0;orthogonalLoop=1;jettySize=auto;html=1;" edge="1" parent="1" source="t81wmtC7-g-EXbkZkcGH-2" target="t81wmtC7-g-EXbkZkcGH-8">
          <mxGeometry relative="1" as="geometry" />
        </mxCell>
        <mxCell id="t81wmtC7-g-EXbkZkcGH-2" value="Monitorear&lt;div&gt;Humedad&lt;/div&gt;" style="ellipse;whiteSpace=wrap;html=1;" vertex="1" parent="1">
          <mxGeometry x="400" y="70" width="100" height="60" as="geometry" />
        </mxCell>
        <mxCell id="t81wmtC7-g-EXbkZkcGH-3" style="edgeStyle=orthogonalEdgeStyle;rounded=0;orthogonalLoop=1;jettySize=auto;html=1;entryX=0.004;entryY=0.682;entryDx=0;entryDy=0;entryPerimeter=0;endArrow=none;startFill=0;dashed=1;" edge="1" parent="1" source="DMwZq3U9byxDhY9_2GD6-2" target="t81wmtC7-g-EXbkZkcGH-1">
          <mxGeometry relative="1" as="geometry" />
        </mxCell>
        <mxCell id="t81wmtC7-g-EXbkZkcGH-5" value="readTemp()" style="ellipse;whiteSpace=wrap;html=1;" vertex="1" parent="1">
          <mxGeometry x="555" y="5" width="95" height="50" as="geometry" />
        </mxCell>
        <mxCell id="t81wmtC7-g-EXbkZkcGH-8" value="readHumidity()" style="ellipse;whiteSpace=wrap;html=1;" vertex="1" parent="1">
          <mxGeometry x="555" y="75" width="90" height="50" as="geometry" />
        </mxCell>
        <mxCell id="t81wmtC7-g-EXbkZkcGH-15" style="edgeStyle=orthogonalEdgeStyle;rounded=0;orthogonalLoop=1;jettySize=auto;html=1;fillColor=#b0e3e6;strokeColor=#0e8088;endArrow=none;startFill=0;" edge="1" parent="1">
          <mxGeometry relative="1" as="geometry">
            <mxPoint x="985" y="194.95" as="sourcePoint" />
            <mxPoint x="540" y="519.95" as="targetPoint" />
            <Array as="points">
              <mxPoint x="985" y="519.95" />
            </Array>
          </mxGeometry>
        </mxCell>
        <mxCell id="t81wmtC7-g-EXbkZkcGH-16" value="verificar" style="text;html=1;align=center;verticalAlign=middle;resizable=0;points=[];autosize=1;strokeColor=#0e8088;fillColor=#b0e3e6;" vertex="1" parent="1">
          <mxGeometry x="690" y="490" width="70" height="30" as="geometry" />
        </mxCell>
        <mxCell id="t81wmtC7-g-EXbkZkcGH-21" value="Historico&lt;div&gt;Temperatura&lt;/div&gt;" style="ellipse;whiteSpace=wrap;html=1;" vertex="1" parent="1">
          <mxGeometry x="541.25" y="360" width="100" height="50" as="geometry" />
        </mxCell>
        <mxCell id="t81wmtC7-g-EXbkZkcGH-22" value="Historico&lt;div&gt;Humedad&lt;/div&gt;" style="ellipse;whiteSpace=wrap;html=1;" vertex="1" parent="1">
          <mxGeometry x="541.25" y="430" width="100" height="50" as="geometry" />
        </mxCell>
        <mxCell id="t81wmtC7-g-EXbkZkcGH-30" style="edgeStyle=orthogonalEdgeStyle;rounded=0;orthogonalLoop=1;jettySize=auto;html=1;entryX=-0.007;entryY=0.602;entryDx=0;entryDy=0;entryPerimeter=0;endArrow=none;startFill=0;" edge="1" parent="1" source="DMwZq3U9byxDhY9_2GD6-1" target="gQAhKNGNgxRMKhjYHFoc-3">
          <mxGeometry relative="1" as="geometry">
            <Array as="points">
              <mxPoint x="140" y="110" />
              <mxPoint x="140" y="420" />
              <mxPoint x="199" y="420" />
            </Array>
          </mxGeometry>
        </mxCell>
        <mxCell id="t81wmtC7-g-EXbkZkcGH-31" value="UpTemp()" style="ellipse;whiteSpace=wrap;html=1;" vertex="1" parent="1">
          <mxGeometry x="562.5" y="135" width="75" height="50" as="geometry" />
        </mxCell>
        <mxCell id="t81wmtC7-g-EXbkZkcGH-33" value="UpTemp()" style="ellipse;whiteSpace=wrap;html=1;" vertex="1" parent="1">
          <mxGeometry x="562.5" y="190" width="75" height="50" as="geometry" />
        </mxCell>
        <mxCell id="t81wmtC7-g-EXbkZkcGH-35" style="edgeStyle=orthogonalEdgeStyle;rounded=0;orthogonalLoop=1;jettySize=auto;html=1;entryX=0.052;entryY=0.666;entryDx=0;entryDy=0;entryPerimeter=0;endArrow=none;startFill=0;" edge="1" parent="1" source="DMwZq3U9byxDhY9_2GD6-1" target="DMwZq3U9byxDhY9_2GD6-2">
          <mxGeometry relative="1" as="geometry">
            <Array as="points">
              <mxPoint x="206" y="110" />
            </Array>
          </mxGeometry>
        </mxCell>
        <mxCell id="t81wmtC7-g-EXbkZkcGH-36" value="DownHumidity()" style="ellipse;whiteSpace=wrap;html=1;" vertex="1" parent="1">
          <mxGeometry x="541.25" y="300" width="117.5" height="40" as="geometry" />
        </mxCell>
        <mxCell id="t81wmtC7-g-EXbkZkcGH-37" value="UpHumidity()" style="ellipse;whiteSpace=wrap;html=1;" vertex="1" parent="1">
          <mxGeometry x="541.25" y="250" width="117.5" height="40" as="geometry" />
        </mxCell>
        <mxCell id="t81wmtC7-g-EXbkZkcGH-42" value="include" style="text;html=1;align=center;verticalAlign=middle;resizable=0;points=[];autosize=1;strokeColor=none;fillColor=none;" vertex="1" parent="1">
          <mxGeometry x="320" y="70" width="60" height="30" as="geometry" />
        </mxCell>
        <mxCell id="t81wmtC7-g-EXbkZkcGH-46" value="Enviar mail" style="text;html=1;align=center;verticalAlign=middle;resizable=0;points=[];autosize=1;strokeColor=#0e8088;fillColor=#b0e3e6;" vertex="1" parent="1">
          <mxGeometry x="650" y="570" width="80" height="30" as="geometry" />
        </mxCell>
        <mxCell id="t81wmtC7-g-EXbkZkcGH-51" style="edgeStyle=orthogonalEdgeStyle;rounded=0;orthogonalLoop=1;jettySize=auto;html=1;entryX=1.003;entryY=0.641;entryDx=0;entryDy=0;entryPerimeter=0;fillColor=#b0e3e6;strokeColor=#0e8088;endArrow=none;startFill=0;dashed=1;" edge="1" parent="1" target="t81wmtC7-g-EXbkZkcGH-22">
          <mxGeometry relative="1" as="geometry">
            <mxPoint x="815" y="385" as="sourcePoint" />
            <Array as="points" />
          </mxGeometry>
        </mxCell>
        <mxCell id="t81wmtC7-g-EXbkZkcGH-55" value="&lt;span style=&quot;text-wrap-mode: wrap;&quot;&gt;Generar&lt;/span&gt;&lt;div&gt;&lt;span style=&quot;text-wrap-mode: wrap;&quot;&gt;&lt;br&gt;&lt;/span&gt;&lt;/div&gt;" style="text;html=1;align=center;verticalAlign=middle;resizable=0;points=[];autosize=1;strokeColor=#0e8088;fillColor=#b0e3e6;" vertex="1" parent="1">
          <mxGeometry x="1080" y="200" width="70" height="40" as="geometry" />
        </mxCell>
        <mxCell id="t81wmtC7-g-EXbkZkcGH-59" value="Leer" style="text;html=1;align=center;verticalAlign=middle;resizable=0;points=[];autosize=1;strokeColor=none;fillColor=none;" vertex="1" parent="1">
          <mxGeometry x="305" y="658" width="50" height="30" as="geometry" />
        </mxCell>
        <mxCell id="t81wmtC7-g-EXbkZkcGH-63" value="" style="edgeStyle=orthogonalEdgeStyle;rounded=0;orthogonalLoop=1;jettySize=auto;html=1;entryX=1;entryY=0.5;entryDx=0;entryDy=0;fillColor=#b0e3e6;strokeColor=#0e8088;endArrow=none;startFill=0;" edge="1" parent="1" source="gQAhKNGNgxRMKhjYHFoc-28" target="t81wmtC7-g-EXbkZkcGH-62">
          <mxGeometry relative="1" as="geometry">
            <mxPoint x="970" y="150" as="sourcePoint" />
            <mxPoint x="641" y="385" as="targetPoint" />
            <Array as="points">
              <mxPoint x="985" y="160" />
              <mxPoint x="870" y="160" />
              <mxPoint x="870" y="385" />
            </Array>
          </mxGeometry>
        </mxCell>
        <mxCell id="t81wmtC7-g-EXbkZkcGH-62" value="Registrar&lt;div&gt;historico&lt;/div&gt;" style="ellipse;whiteSpace=wrap;html=1;fillColor=#b0e3e6;strokeColor=#0e8088;" vertex="1" parent="1">
          <mxGeometry x="810" y="350" width="100" height="70" as="geometry" />
        </mxCell>
      </root>
    </mxGraphModel>
  </diagram>
</mxfile>
